<mxfile host="app.diagrams.net" modified="2024-05-19T09:11:12.462Z" agent="Mozilla/5.0 (Windows NT 10.0; Win64; x64) AppleWebKit/537.36 (KHTML, like Gecko) Chrome/122.0.0.0 YaBrowser/24.4.0.0 Safari/537.36" etag="7fd6YnKgdwMKbWs3Ta-o" version="24.4.4" type="github">
  <diagram name="Page-1" id="58cdce13-f638-feb5-8d6f-7d28b1aa9fa0">
    <mxGraphModel dx="1670" dy="945" grid="1" gridSize="10" guides="1" tooltips="1" connect="1" arrows="1" fold="1" page="1" pageScale="1" pageWidth="1100" pageHeight="850" background="none" math="0" shadow="0">
      <root>
        <mxCell id="0" />
        <mxCell id="1" parent="0" />
        <mxCell id="382b91b5511bd0f7-1" value="" style="ellipse;html=1;shape=startState;fillColor=#000000;strokeColor=#ff0000;rounded=1;shadow=0;comic=0;labelBackgroundColor=none;fontFamily=Verdana;fontSize=12;fontColor=#000000;align=center;direction=south;" parent="1" vertex="1">
          <mxGeometry x="100" y="145" width="30" height="30" as="geometry" />
        </mxCell>
        <mxCell id="382b91b5511bd0f7-6" value="Составление заказа&lt;div&gt;(формирование содержимого заказа)&lt;/div&gt;" style="rounded=1;whiteSpace=wrap;html=1;arcSize=24;fillColor=#ffffc0;strokeColor=#ff0000;shadow=0;comic=0;labelBackgroundColor=none;fontFamily=Verdana;fontSize=12;fontColor=#000000;align=center;" parent="1" vertex="1">
          <mxGeometry x="260" y="130" width="160" height="60" as="geometry" />
        </mxCell>
        <mxCell id="3cde6dad864a17aa-13" style="edgeStyle=elbowEdgeStyle;html=1;exitX=0;exitY=0.5;labelBackgroundColor=none;endArrow=open;endSize=8;strokeColor=#ff0000;fontFamily=Verdana;fontSize=12;align=left;exitDx=0;exitDy=0;" parent="1" source="382b91b5511bd0f7-9" edge="1">
          <mxGeometry relative="1" as="geometry">
            <mxPoint x="890" y="372.5" as="sourcePoint" />
            <mxPoint x="700" y="190" as="targetPoint" />
            <Array as="points">
              <mxPoint x="700" y="270" />
              <mxPoint x="730" y="317.5" />
            </Array>
          </mxGeometry>
        </mxCell>
        <mxCell id="j5qv9gXlauBq_Ie_a54V-8" style="edgeStyle=orthogonalEdgeStyle;rounded=0;orthogonalLoop=1;jettySize=auto;html=1;entryX=0.5;entryY=0;entryDx=0;entryDy=0;fillColor=#e51400;strokeColor=#FF0000;" edge="1" parent="1" source="382b91b5511bd0f7-9" target="j5qv9gXlauBq_Ie_a54V-6">
          <mxGeometry relative="1" as="geometry" />
        </mxCell>
        <mxCell id="382b91b5511bd0f7-9" value="Архивация заказа" style="rounded=1;whiteSpace=wrap;html=1;arcSize=24;fillColor=#ffffc0;strokeColor=#FF0000;shadow=0;comic=0;labelBackgroundColor=none;fontFamily=Verdana;fontSize=12;fontColor=#000000;align=center;" parent="1" vertex="1">
          <mxGeometry x="960" y="310" width="120" height="60" as="geometry" />
        </mxCell>
        <mxCell id="2a3bc250acf0617d-8" value="" style="shape=umlFrame;whiteSpace=wrap;html=1;rounded=1;shadow=0;comic=0;labelBackgroundColor=none;strokeWidth=1;fontFamily=Verdana;fontSize=12;align=center;" parent="1" vertex="1">
          <mxGeometry x="10" y="20" width="1080" height="710" as="geometry" />
        </mxCell>
        <mxCell id="2a3bc250acf0617d-9" style="edgeStyle=orthogonalEdgeStyle;html=1;labelBackgroundColor=none;endArrow=open;endSize=8;strokeColor=#ff0000;fontFamily=Verdana;fontSize=12;align=left;" parent="1" source="382b91b5511bd0f7-1" target="382b91b5511bd0f7-6" edge="1">
          <mxGeometry relative="1" as="geometry" />
        </mxCell>
        <mxCell id="2a3bc250acf0617d-10" style="edgeStyle=orthogonalEdgeStyle;html=1;labelBackgroundColor=none;endArrow=open;endSize=8;strokeColor=#ff0000;fontFamily=Verdana;fontSize=12;align=left;exitX=1;exitY=0.5;exitDx=0;exitDy=0;entryX=0;entryY=0.5;entryDx=0;entryDy=0;" parent="1" source="382b91b5511bd0f7-6" target="j5qv9gXlauBq_Ie_a54V-13" edge="1">
          <mxGeometry relative="1" as="geometry">
            <Array as="points" />
            <mxPoint x="470" y="159.58" as="sourcePoint" />
            <mxPoint x="590" y="159.58" as="targetPoint" />
          </mxGeometry>
        </mxCell>
        <mxCell id="2a3bc250acf0617d-11" style="edgeStyle=orthogonalEdgeStyle;html=1;labelBackgroundColor=none;endArrow=open;endSize=8;strokeColor=#ff0000;fontFamily=Verdana;fontSize=12;align=left;" parent="1" target="j5qv9gXlauBq_Ie_a54V-20" edge="1">
          <mxGeometry relative="1" as="geometry">
            <mxPoint x="650" y="190" as="sourcePoint" />
            <Array as="points">
              <mxPoint x="650" y="348" />
            </Array>
            <mxPoint x="500" y="347" as="targetPoint" />
          </mxGeometry>
        </mxCell>
        <mxCell id="2a3bc250acf0617d-15" style="edgeStyle=orthogonalEdgeStyle;html=1;exitX=1;exitY=0;labelBackgroundColor=none;endArrow=open;endSize=8;strokeColor=#ff0000;fontFamily=Verdana;fontSize=12;align=left;exitDx=0;exitDy=0;" parent="1" source="j5qv9gXlauBq_Ie_a54V-14" edge="1">
          <mxGeometry relative="1" as="geometry">
            <mxPoint x="760" y="177.5" as="sourcePoint" />
            <mxPoint x="1020" y="310" as="targetPoint" />
            <Array as="points">
              <mxPoint x="1020" y="160" />
            </Array>
          </mxGeometry>
        </mxCell>
        <mxCell id="j5qv9gXlauBq_Ie_a54V-6" value="" style="ellipse;html=1;shape=endState;fillColor=#000000;strokeColor=#ff0000;" vertex="1" parent="1">
          <mxGeometry x="1005" y="445" width="30" height="30" as="geometry" />
        </mxCell>
        <mxCell id="j5qv9gXlauBq_Ie_a54V-10" value="[оплата не прошла]" style="text;strokeColor=none;fillColor=none;align=left;verticalAlign=middle;spacingTop=-1;spacingLeft=4;spacingRight=4;rotatable=0;labelPosition=right;points=[];portConstraint=eastwest;" vertex="1" parent="1">
          <mxGeometry x="810" y="145" height="14" as="geometry" />
        </mxCell>
        <mxCell id="j5qv9gXlauBq_Ie_a54V-11" value="повторная оплата" style="text;strokeColor=none;fillColor=none;align=left;verticalAlign=middle;spacingTop=-1;spacingLeft=4;spacingRight=4;rotatable=0;labelPosition=right;points=[];portConstraint=eastwest;" vertex="1" parent="1">
          <mxGeometry x="780" y="320" width="20" height="14" as="geometry" />
        </mxCell>
        <mxCell id="j5qv9gXlauBq_Ie_a54V-13" value="Оформление заказа" style="swimlane;fontStyle=1;align=center;verticalAlign=middle;childLayout=stackLayout;horizontal=1;startSize=30;horizontalStack=0;resizeParent=0;resizeLast=1;container=0;fontColor=#000000;collapsible=0;rounded=1;arcSize=30;strokeColor=#ff0000;fillColor=#ffffc0;swimlaneFillColor=#ffffc0;dropTarget=0;" vertex="1" parent="1">
          <mxGeometry x="600" y="130" width="160" height="60" as="geometry" />
        </mxCell>
        <mxCell id="j5qv9gXlauBq_Ie_a54V-14" value="Оплата заказа" style="text;html=1;strokeColor=none;fillColor=none;align=center;verticalAlign=middle;spacingLeft=4;spacingRight=4;whiteSpace=wrap;overflow=hidden;rotatable=0;fontColor=#000000;" vertex="1" parent="j5qv9gXlauBq_Ie_a54V-13">
          <mxGeometry y="30" width="160" height="30" as="geometry" />
        </mxCell>
        <mxCell id="j5qv9gXlauBq_Ie_a54V-19" value="Оформление заказа" style="swimlane;fontStyle=1;align=center;verticalAlign=middle;childLayout=stackLayout;horizontal=1;startSize=30;horizontalStack=0;resizeParent=0;resizeLast=1;container=0;fontColor=#000000;collapsible=0;rounded=1;arcSize=30;strokeColor=#ff0000;fillColor=#ffffc0;swimlaneFillColor=#ffffc0;dropTarget=0;" vertex="1" parent="1">
          <mxGeometry x="380" y="310" width="200" height="80" as="geometry" />
        </mxCell>
        <mxCell id="j5qv9gXlauBq_Ie_a54V-20" value="Появление заказа в базе заказов в Магазине/ресторане" style="text;html=1;strokeColor=none;fillColor=none;align=center;verticalAlign=middle;spacingLeft=4;spacingRight=4;whiteSpace=wrap;overflow=hidden;rotatable=0;fontColor=#000000;" vertex="1" parent="j5qv9gXlauBq_Ie_a54V-19">
          <mxGeometry y="30" width="200" height="50" as="geometry" />
        </mxCell>
        <mxCell id="j5qv9gXlauBq_Ie_a54V-22" value="Оформление заказа" style="swimlane;fontStyle=1;align=center;verticalAlign=middle;childLayout=stackLayout;horizontal=1;startSize=30;horizontalStack=0;resizeParent=0;resizeLast=1;container=0;fontColor=#000000;collapsible=0;rounded=1;arcSize=30;strokeColor=#ff0000;fillColor=#ffffc0;swimlaneFillColor=#ffffc0;dropTarget=0;" vertex="1" parent="1">
          <mxGeometry x="20" y="310" width="210" height="80" as="geometry" />
        </mxCell>
        <mxCell id="j5qv9gXlauBq_Ie_a54V-23" value="Появление заказа в активных заказах курьера" style="text;html=1;strokeColor=none;fillColor=none;align=center;verticalAlign=middle;spacingLeft=4;spacingRight=4;whiteSpace=wrap;overflow=hidden;rotatable=0;fontColor=#000000;" vertex="1" parent="j5qv9gXlauBq_Ie_a54V-22">
          <mxGeometry y="30" width="210" height="50" as="geometry" />
        </mxCell>
        <mxCell id="j5qv9gXlauBq_Ie_a54V-25" style="edgeStyle=orthogonalEdgeStyle;rounded=0;orthogonalLoop=1;jettySize=auto;html=1;entryX=0.999;entryY=0.13;entryDx=0;entryDy=0;strokeColor=#FF0000;entryPerimeter=0;exitX=0;exitY=0.153;exitDx=0;exitDy=0;exitPerimeter=0;" edge="1" parent="1" source="j5qv9gXlauBq_Ie_a54V-20" target="j5qv9gXlauBq_Ie_a54V-23">
          <mxGeometry relative="1" as="geometry">
            <mxPoint x="385" y="347" as="sourcePoint" />
            <mxPoint x="235" y="350" as="targetPoint" />
            <Array as="points">
              <mxPoint x="235" y="348" />
              <mxPoint x="235" y="346" />
            </Array>
          </mxGeometry>
        </mxCell>
        <mxCell id="j5qv9gXlauBq_Ie_a54V-29" value="Заказ приготовлен и собран" style="rounded=1;whiteSpace=wrap;html=1;arcSize=40;fontColor=#000000;fillColor=#ffffc0;strokeColor=#ff0000;" vertex="1" parent="1">
          <mxGeometry x="45" y="472.5" width="160" height="65" as="geometry" />
        </mxCell>
        <mxCell id="j5qv9gXlauBq_Ie_a54V-30" value="" style="edgeStyle=orthogonalEdgeStyle;html=1;verticalAlign=bottom;endArrow=open;endSize=8;strokeColor=#ff0000;rounded=0;exitX=1;exitY=0.5;exitDx=0;exitDy=0;" edge="1" source="j5qv9gXlauBq_Ie_a54V-29" parent="1" target="j5qv9gXlauBq_Ie_a54V-31">
          <mxGeometry relative="1" as="geometry">
            <mxPoint x="170" y="590" as="targetPoint" />
            <Array as="points">
              <mxPoint x="275" y="505" />
            </Array>
          </mxGeometry>
        </mxCell>
        <mxCell id="j5qv9gXlauBq_Ie_a54V-33" value="" style="edgeStyle=orthogonalEdgeStyle;rounded=0;orthogonalLoop=1;jettySize=auto;html=1;strokeColor=#FF0000;" edge="1" parent="1" source="j5qv9gXlauBq_Ie_a54V-31" target="j5qv9gXlauBq_Ie_a54V-32">
          <mxGeometry relative="1" as="geometry" />
        </mxCell>
        <mxCell id="j5qv9gXlauBq_Ie_a54V-31" value="Заказ получен курьером" style="rounded=1;whiteSpace=wrap;html=1;arcSize=40;fontColor=#000000;fillColor=#ffffc0;strokeColor=#ff0000;" vertex="1" parent="1">
          <mxGeometry x="410" y="475" width="160" height="60" as="geometry" />
        </mxCell>
        <mxCell id="j5qv9gXlauBq_Ie_a54V-35" value="" style="edgeStyle=orthogonalEdgeStyle;rounded=0;orthogonalLoop=1;jettySize=auto;html=1;strokeColor=#FF0000;" edge="1" parent="1" source="j5qv9gXlauBq_Ie_a54V-32" target="j5qv9gXlauBq_Ie_a54V-34">
          <mxGeometry relative="1" as="geometry" />
        </mxCell>
        <mxCell id="j5qv9gXlauBq_Ie_a54V-32" value="Заказ доставлен" style="whiteSpace=wrap;html=1;fillColor=#ffffc0;strokeColor=#ff0000;fontColor=#000000;rounded=1;arcSize=40;" vertex="1" parent="1">
          <mxGeometry x="750" y="475" width="120" height="60" as="geometry" />
        </mxCell>
        <mxCell id="j5qv9gXlauBq_Ie_a54V-37" value="" style="edgeStyle=orthogonalEdgeStyle;rounded=0;orthogonalLoop=1;jettySize=auto;html=1;entryX=0.5;entryY=0;entryDx=0;entryDy=0;strokeColor=#FF0000;exitX=0.5;exitY=1;exitDx=0;exitDy=0;" edge="1" parent="1" source="j5qv9gXlauBq_Ie_a54V-34" target="j5qv9gXlauBq_Ie_a54V-38">
          <mxGeometry relative="1" as="geometry">
            <mxPoint x="760" y="761.361681349734" as="sourcePoint" />
            <mxPoint x="760" y="680" as="targetPoint" />
            <Array as="points">
              <mxPoint x="810" y="650" />
              <mxPoint x="810" y="650" />
            </Array>
          </mxGeometry>
        </mxCell>
        <mxCell id="j5qv9gXlauBq_Ie_a54V-34" value="Заказ архивирован" style="whiteSpace=wrap;html=1;fillColor=#ffffc0;strokeColor=#ff0000;fontColor=#000000;rounded=1;arcSize=40;" vertex="1" parent="1">
          <mxGeometry x="750" y="580" width="120" height="60" as="geometry" />
        </mxCell>
        <mxCell id="j5qv9gXlauBq_Ie_a54V-38" value="" style="ellipse;html=1;shape=endState;fillColor=#000000;strokeColor=#ff0000;" vertex="1" parent="1">
          <mxGeometry x="795" y="670" width="30" height="30" as="geometry" />
        </mxCell>
        <mxCell id="j5qv9gXlauBq_Ie_a54V-40" style="edgeStyle=orthogonalEdgeStyle;rounded=0;orthogonalLoop=1;jettySize=auto;html=1;strokeColor=#FF0000;" edge="1" parent="1" source="j5qv9gXlauBq_Ie_a54V-23" target="j5qv9gXlauBq_Ie_a54V-29">
          <mxGeometry relative="1" as="geometry" />
        </mxCell>
        <mxCell id="j5qv9gXlauBq_Ie_a54V-41" value="нажать &quot;оформить заказ&quot;" style="text;strokeColor=none;fillColor=none;align=left;verticalAlign=middle;spacingTop=-1;spacingLeft=4;spacingRight=4;rotatable=0;labelPosition=right;points=[];portConstraint=eastwest;" vertex="1" parent="1">
          <mxGeometry x="410" y="145" width="20" height="14" as="geometry" />
        </mxCell>
        <mxCell id="j5qv9gXlauBq_Ie_a54V-43" value="[оплата прошла]" style="text;strokeColor=none;fillColor=none;align=left;verticalAlign=middle;spacingTop=-1;spacingLeft=4;spacingRight=4;rotatable=0;labelPosition=right;points=[];portConstraint=eastwest;" vertex="1" parent="1">
          <mxGeometry x="530" y="220" width="20" height="14" as="geometry" />
        </mxCell>
        <mxCell id="j5qv9gXlauBq_Ie_a54V-44" value="&lt;span style=&quot;color: rgb(0, 0, 0); font-family: Helvetica; font-size: 12px; font-style: normal; font-variant-ligatures: normal; font-variant-caps: normal; font-weight: 400; letter-spacing: normal; orphans: 2; text-indent: 0px; text-transform: none; widows: 2; word-spacing: 0px; -webkit-text-stroke-width: 0px; white-space: normal; background-color: rgb(251, 251, 251); text-decoration-thickness: initial; text-decoration-style: initial; text-decoration-color: initial; float: none; display: inline !important;&quot;&gt;передача данных о заказе магазину/ресторану&lt;/span&gt;" style="text;whiteSpace=wrap;html=1;align=right;" vertex="1" parent="1">
          <mxGeometry x="490" y="234" width="160" height="40" as="geometry" />
        </mxCell>
        <mxCell id="j5qv9gXlauBq_Ie_a54V-45" value="передача данных&#xa;о заказе курьеру" style="text;align=center;verticalAlign=middle;resizable=0;points=[];autosize=1;strokeColor=none;fillColor=none;" vertex="1" parent="1">
          <mxGeometry x="250" y="307" width="120" height="40" as="geometry" />
        </mxCell>
        <mxCell id="j5qv9gXlauBq_Ie_a54V-48" value="&lt;span style=&quot;text-wrap: wrap;&quot;&gt;приготовление/сборка заказа&lt;/span&gt;" style="text;html=1;align=center;verticalAlign=middle;resizable=0;points=[];autosize=1;strokeColor=none;fillColor=none;" vertex="1" parent="1">
          <mxGeometry x="80" y="415" width="190" height="30" as="geometry" />
        </mxCell>
        <mxCell id="j5qv9gXlauBq_Ie_a54V-49" value="получение заказа курьером" style="text;align=center;verticalAlign=middle;resizable=0;points=[];autosize=1;strokeColor=none;fillColor=none;" vertex="1" parent="1">
          <mxGeometry x="220" y="475" width="180" height="30" as="geometry" />
        </mxCell>
        <mxCell id="j5qv9gXlauBq_Ie_a54V-51" value="доставка заказа" style="text;align=center;verticalAlign=middle;resizable=0;points=[];autosize=1;strokeColor=none;fillColor=none;" vertex="1" parent="1">
          <mxGeometry x="600" y="475" width="110" height="30" as="geometry" />
        </mxCell>
      </root>
    </mxGraphModel>
  </diagram>
</mxfile>
